<svg width="47" height="47" viewBox="0 0 47 47" fill="none" xmlns="http://www.w3.org/2000/svg">
<path d="M44.8406 14.2223C44.6606 13.9703 44.3635 13.8263 44.0485 13.8443C40.4935 14.0243 38.3875 10.4243 38.3695 10.3883C38.3335 10.3253 38.2795 10.2623 38.2255 10.1993C32.7085 4.62834 27.3355 1.81134 22.2415 1.81134C18.4165 1.81134 15.7886 3.43134 14.5556 4.40334C14.2226 4.67334 13.7726 4.83534 13.2596 4.87134C11.8916 4.98834 10.9106 5.35734 10.3256 5.65434C10.0286 5.79834 9.71355 5.92434 9.36255 6.06834C2.19855 8.93934 4.24155 19.2443 4.80855 21.5843L4.56555 21.8723C4.17855 22.3583 3.72855 22.7993 3.29655 23.2133C1.04655 25.3283 1.99155 28.3073 2.02755 28.4243C3.08955 31.7543 5.88855 32.9693 7.04055 33.3383C7.86855 35.4083 9.79455 38.0453 9.85755 38.1353C13.8356 44.1113 20.0365 45.0113 23.3755 45.0113C24.5905 45.0113 25.3556 44.8853 25.3736 44.8853C34.4095 43.6253 37.5955 35.5343 38.3065 33.3473C41.7985 32.4113 42.5005 29.7743 42.6175 29.1353C44.2015 25.1033 41.4655 22.3583 39.4135 21.2333V19.6493C43.3825 18.7043 44.8675 15.2483 44.9305 15.0863C45.0475 14.7983 45.0116 14.4743 44.8406 14.2223ZM40.9166 28.5503C40.8806 28.6223 40.8626 28.7033 40.8536 28.7753C40.8446 28.8743 40.5025 31.0883 37.4065 31.7093C37.0645 31.7723 36.7945 32.0333 36.7135 32.3753C36.6865 32.4743 34.3465 41.8163 25.1125 43.1033C25.1035 43.1033 24.4285 43.2113 23.3755 43.2113C20.3965 43.2113 14.8706 42.4193 11.3336 37.1003C11.3156 37.0733 9.19155 34.1573 8.58855 32.3123C8.48055 31.9973 8.22855 31.7723 7.90455 31.7093C7.87755 31.7003 4.75455 31.0433 3.74655 27.8753C3.71955 27.7943 3.12555 25.8503 4.52955 24.5183C4.96155 24.1133 5.45655 23.6183 5.89755 23.0873L6.94155 24.0143L7.89555 27.3983C7.91355 27.4433 7.93155 27.4973 7.94955 27.5423C8.07555 27.8123 8.77755 29.1713 9.94755 29.2433H10.0376C10.4876 29.2433 11.0996 29.0543 11.6306 28.2083C11.6936 28.1183 11.7296 28.0103 11.7566 27.9023L12.5126 23.8523H13.0886C13.1336 23.8523 13.1696 23.8523 13.2146 23.8433C13.3766 23.8163 14.8436 23.5823 15.8786 22.2143C16.4816 21.4133 16.7966 20.4233 16.8236 19.2533C19.7126 20.1623 26.9396 22.1243 33.5096 21.4313V27.2723C33.5096 27.6503 33.7436 27.9923 34.1036 28.1183C34.2785 28.1806 34.4684 28.1872 34.6473 28.1372C34.8261 28.0873 34.9852 27.9832 35.1025 27.8393L38.2795 23.9783C38.3155 23.9423 38.3425 23.8973 38.3695 23.8523L38.8555 23.0063C40.0255 23.7533 42.1226 25.5713 40.9166 28.5503Z" fill="black"/>
</svg>
