<svg width="47" height="47" viewBox="0 0 47 47" fill="none" xmlns="http://www.w3.org/2000/svg">
<path d="M45.0322 14.2717C44.8514 14.0186 44.5531 13.874 44.2368 13.8921C40.6666 14.0729 38.5516 10.4575 38.5335 10.4213C38.4974 10.3581 38.4431 10.2948 38.3889 10.2315C32.8483 4.63672 27.4524 1.80768 22.3366 1.80768C18.4953 1.80768 15.856 3.4346 14.6178 4.41076C14.2833 4.68191 13.8314 4.8446 13.3162 4.88076C11.9424 4.99826 10.9572 5.36884 10.3697 5.6671C10.0714 5.81172 9.75506 5.93826 9.40256 6.08287C2.20795 8.96614 4.25968 19.3152 4.8291 21.6652L4.58506 21.9544C4.19641 22.4425 3.74449 22.8854 3.31064 23.3012C1.05102 25.4252 2.00006 28.4169 2.03622 28.5344C3.10275 31.8787 5.91372 33.0988 7.07064 33.4694C7.90218 35.5483 9.83641 38.1965 9.89968 38.2869C13.8947 44.2885 20.1222 45.1923 23.4755 45.1923C24.6956 45.1923 25.4639 45.0658 25.482 45.0658C34.5566 43.8004 37.7562 35.6748 38.4703 33.4785C41.9772 32.5385 42.6822 29.8902 42.7997 29.2485C44.3905 25.1992 41.6428 22.4425 39.582 21.3127V19.7219C43.568 18.7729 45.0593 15.3021 45.1226 15.1394C45.2401 14.8502 45.2039 14.5248 45.0322 14.2717ZM41.0914 28.661C41.0553 28.7333 41.0372 28.8146 41.0281 28.8869C41.0191 28.9863 40.6756 31.2098 37.5664 31.8335C37.223 31.8967 36.9518 32.1588 36.8705 32.5023C36.8433 32.6017 34.4933 41.9837 25.2199 43.2762C25.2108 43.2762 24.533 43.3846 23.4755 43.3846C20.4837 43.3846 14.9341 42.5892 11.382 37.2475C11.3639 37.2204 9.23083 34.2919 8.62526 32.439C8.51679 32.1227 8.26372 31.8967 7.93833 31.8335C7.91122 31.8244 4.77487 31.1646 3.76256 27.9831C3.73545 27.9017 3.13891 25.9494 4.54891 24.6117C4.98276 24.205 5.47987 23.7079 5.92276 23.1746L6.97122 24.1056L7.92929 27.504C7.94737 27.5492 7.96545 27.6035 7.98353 27.6486C8.11006 27.9198 8.81506 29.2846 9.99006 29.3569H10.0804C10.5324 29.3569 11.147 29.1671 11.6803 28.3175C11.7435 28.2271 11.7797 28.1187 11.8068 28.0102L12.566 23.9429H13.1445C13.1897 23.9429 13.2258 23.9429 13.271 23.9338C13.4337 23.9067 14.907 23.6717 15.9464 22.2979C16.552 21.4935 16.8683 20.4992 16.8955 19.3242C19.7968 20.2371 27.0547 22.2075 33.6528 21.5115V27.3775C33.6528 27.7571 33.8878 28.1006 34.2493 28.2271C34.425 28.2896 34.6157 28.2962 34.7954 28.2461C34.975 28.1959 35.1347 28.0914 35.2526 27.9469L38.4431 24.0694C38.4793 24.0333 38.5064 23.9881 38.5335 23.9429L39.0216 23.0933C40.1966 23.8435 42.3026 25.6692 41.0914 28.661Z" fill="black"/>
</svg>
