<svg width="27" height="27" viewBox="0 0 27 27" fill="none" xmlns="http://www.w3.org/2000/svg">
<g clip-path="url(#clip0_1_213)">
<path d="M0.0423828 19.2628C0.122244 19.456 0.257722 19.6211 0.431613 19.7372C0.605505 19.8532 0.809963 19.915 1.01902 19.9146C1.15561 19.9121 1.29036 19.8827 1.41559 19.8281L11.0175 15.9574L8.53473 25.3758C8.43863 25.6345 8.4478 25.9206 8.56027 26.1727C8.67274 26.4248 8.87954 26.6227 9.13628 26.724C9.39303 26.8253 9.67927 26.822 9.93356 26.7146C10.1879 26.6073 10.3899 26.4046 10.4964 26.1499L15.3164 14.2214L15.5146 14.1412C15.5489 14.1289 15.581 14.1111 15.6096 14.0885C15.6096 14.0885 16.3816 13.5759 18.1408 14.58C18.2205 14.6254 18.3129 14.6436 18.4038 14.6318C18.4948 14.62 18.5795 14.5788 18.645 14.5146C19.455 13.7194 20.8218 12.7955 21.2775 13.133H21.2943C21.6742 13.4182 22.122 13.5993 22.5934 13.6581C23.0648 13.7169 23.5434 13.6515 23.9817 13.4684C24.4134 13.2884 24.7919 13.001 25.0812 12.6334C25.3704 12.2659 25.5609 11.8305 25.6345 11.3686C25.7081 10.9068 25.6623 10.4337 25.5014 9.99452C25.3406 9.55533 25.0702 9.16456 24.7157 8.85937L26.4201 8.31937C26.5108 8.28212 26.5916 8.22431 26.6562 8.15049C26.7207 8.07667 26.7672 7.98887 26.792 7.89401C26.8168 7.79914 26.8192 7.69982 26.799 7.60387C26.7789 7.50791 26.7367 7.41796 26.6758 7.34109C26.6149 7.26423 26.537 7.20257 26.4482 7.16097C26.3594 7.11937 26.2622 7.09897 26.1642 7.10137C26.0662 7.10378 25.97 7.12893 25.8834 7.17485C25.7968 7.22076 25.722 7.28617 25.665 7.36593L24.2221 8.52187C24.1462 8.48179 24.0682 8.44593 23.9901 8.41218C23.3188 8.13246 22.5638 8.13088 21.8913 8.40779C21.2188 8.6847 20.6839 9.21742 20.4042 9.88875C20.3894 9.9246 20.3789 9.96046 20.3662 9.99632C20.3536 10.0322 19.8789 10.8401 18.3602 11.4729C17.4532 11.8484 15.7277 11.6332 14.3882 11.3569L13.9664 6.55382C13.9664 6.45046 14.0739 5.84085 15.0654 5.47382C15.1998 5.44153 15.3317 5.39922 15.4598 5.34726H15.4809C15.9795 5.13635 16.4045 4.78255 16.7024 4.33047C17.0003 3.87839 17.1577 3.34825 17.1548 2.80687C17.1518 2.26548 16.9887 1.73708 16.6859 1.28825C16.3832 0.839426 15.9544 0.49026 15.4535 0.28476C15.1211 0.146256 14.7646 0.0745814 14.4045 0.073828C14.0444 0.0730747 13.6877 0.143257 13.3547 0.280369C13.0217 0.41748 12.719 0.618836 12.4638 0.872938C12.2087 1.12704 12.006 1.42891 11.8675 1.76132C11.3655 2.97421 11.3803 3.54163 11.395 3.68718L12.0236 11.34L0.584492 17.898C0.334495 18.0105 0.138093 18.2158 0.0368996 18.4706C-0.0642936 18.7253 -0.0623269 19.0095 0.0423828 19.2628ZM13.0361 13.1119C13.1003 13.266 13.1173 13.4358 13.0849 13.5996C13.0526 13.7634 12.9723 13.9139 12.8544 14.0321C12.7364 14.1503 12.5861 14.2308 12.4223 14.2635C12.2586 14.2962 12.0888 14.2796 11.9346 14.2157C11.7803 14.1519 11.6484 14.0437 11.5556 13.9049C11.4628 13.766 11.4134 13.6028 11.4134 13.4358C11.4135 13.2688 11.4631 13.1056 11.5559 12.9669C11.6488 12.8281 11.7807 12.72 11.935 12.6562C12.1415 12.571 12.3734 12.571 12.5798 12.6564C12.7862 12.7419 12.9503 12.9056 13.0361 13.1119ZM22.2119 9.19054C22.6177 9.02243 23.0692 9.00022 23.4895 9.1277C23.9098 9.25518 24.273 9.52446 24.517 9.88966C24.761 10.2548 24.8709 10.6934 24.8278 11.1305C24.7848 11.5676 24.5915 11.9762 24.2809 12.2868C23.9703 12.5974 23.5617 12.7907 23.1246 12.8337C22.6875 12.8768 22.249 12.7669 21.8838 12.5229C21.5186 12.2788 21.2493 11.9157 21.1218 11.4954C20.9943 11.0751 21.0165 10.6236 21.1846 10.2178C21.2803 9.98733 21.4204 9.77797 21.5971 9.6017C21.7737 9.42543 21.9833 9.28572 22.214 9.19054H22.2119ZM13.6858 1.05468C14.1499 0.858877 14.6727 0.855438 15.1393 1.04512C15.6059 1.2348 15.978 1.60207 16.1738 2.06613C16.3696 2.53018 16.3731 3.05302 16.1834 3.51961C15.9937 3.9862 15.6264 4.35833 15.1624 4.55413C15.0344 4.58788 14.9149 4.62585 14.8038 4.66804C14.4655 4.73973 14.114 4.71764 13.7873 4.60417C13.4607 4.49071 13.1712 4.29016 12.9502 4.0242C12.7292 3.75823 12.585 3.43694 12.5332 3.09502C12.4814 2.7531 12.5241 2.40353 12.6564 2.08406C12.7513 1.85283 12.8911 1.64275 13.0678 1.46604C13.2445 1.28932 13.4546 1.14949 13.6858 1.05468Z" fill="black"/>
</g>
<defs>
<clipPath id="clip0_1_213">
<rect width="27" height="27" fill="white"/>
</clipPath>
</defs>
</svg>
