<svg width="30" height="30" viewBox="0 0 30 30" fill="none" xmlns="http://www.w3.org/2000/svg">
<g clip-path="url(#clip0_1_211)">
<path d="M19.6851 29.2653C19.8896 29.2009 20.0704 29.0773 20.2045 28.91C20.3386 28.7427 20.42 28.5393 20.4383 28.3257C20.448 28.1859 20.43 28.0456 20.3854 27.9128L17.2889 17.7563L26.6899 21.1349C26.9457 21.2562 27.2389 21.2724 27.5064 21.18C27.774 21.0876 27.9948 20.894 28.1212 20.6408C28.2477 20.3875 28.2698 20.0947 28.1829 19.8253C28.096 19.5559 27.9069 19.3313 27.6562 19.1998L15.8995 13.2089L15.8353 12.9991C15.8257 12.963 15.8104 12.9286 15.7899 12.8974C15.7899 12.8974 15.3352 12.0628 16.5183 10.3551C16.5718 10.2777 16.5987 10.185 16.5947 10.091C16.5908 9.99699 16.5563 9.90683 16.4966 9.83417C15.7565 8.93549 14.9347 7.45634 15.3202 7.02098L15.3218 7.00375C15.6472 6.64114 15.8722 6.19977 15.9744 5.7234C16.0767 5.24704 16.0526 4.75222 15.9046 4.28801C15.7593 3.83085 15.4995 3.41845 15.1499 3.09003C14.8003 2.7616 14.3724 2.52806 13.9071 2.41161C13.4417 2.29516 12.9543 2.29967 12.4912 2.42471C12.0281 2.54975 11.6047 2.79117 11.2612 3.12601L10.8618 1.33634C10.8318 1.24034 10.78 1.15262 10.7103 1.08009C10.6407 1.00755 10.5551 0.952197 10.4604 0.918387C10.3657 0.884577 10.2645 0.873235 10.1646 0.885258C10.0648 0.897282 9.9691 0.932342 9.88512 0.987671C9.80115 1.043 9.73118 1.11708 9.68074 1.20408C9.6303 1.29107 9.60076 1.3886 9.59446 1.48896C9.58816 1.58933 9.60527 1.68978 9.64443 1.7824C9.6836 1.87503 9.74375 1.95728 9.82014 2.02267L10.8722 3.60015C10.8245 3.67416 10.7809 3.7507 10.7394 3.82742C10.3936 4.48833 10.3245 5.25954 10.5473 5.97139C10.7701 6.68325 11.2666 7.27743 11.9275 7.62324C11.9628 7.64153 11.9985 7.65551 12.034 7.67165C12.0695 7.68778 12.8525 8.24492 13.3633 9.85322C13.6659 10.8135 13.2918 12.5572 12.8898 13.9011L7.94467 13.9028C7.83906 13.8935 7.22583 13.7291 6.93945 12.6834C6.91847 12.5431 6.88703 12.4046 6.84539 12.2691L6.84728 12.2475C6.67636 11.7192 6.35287 11.2533 5.9176 10.9086C5.48232 10.5638 4.95474 10.3556 4.40133 10.3102C3.84793 10.2648 3.29346 10.3842 2.80783 10.6534C2.32219 10.9227 1.9271 11.3296 1.67237 11.823C1.50114 12.1502 1.39605 12.508 1.36309 12.8759C1.33013 13.2437 1.36995 13.6145 1.48027 13.967C1.5906 14.3194 1.76927 14.6467 2.00608 14.9301C2.24289 15.2136 2.53321 15.4476 2.86046 15.6188C4.05482 16.2402 4.63588 16.2758 4.78591 16.2737L12.6611 16.3155L18.3391 28.5894C18.4316 28.8549 18.6239 29.0739 18.8751 29.2C19.1264 29.3262 19.4169 29.3496 19.6851 29.2653ZM14.562 15.4394C14.7252 15.3877 14.9002 15.3855 15.0647 15.4332C15.2291 15.4809 15.3758 15.5763 15.486 15.7074C15.5962 15.8385 15.665 15.9993 15.6838 16.1695C15.7026 16.3397 15.6704 16.5117 15.5914 16.6636C15.5124 16.8156 15.39 16.9406 15.2399 17.023C15.0897 17.1054 14.9185 17.1413 14.7479 17.1264C14.5773 17.1114 14.415 17.0461 14.2815 16.9389C14.1481 16.8316 14.0494 16.6871 13.9981 16.5237C13.9294 16.3052 13.9502 16.0683 14.0559 15.865C14.1616 15.6617 14.3436 15.5087 14.562 15.4394ZM11.3757 5.71383C11.2402 5.2842 11.2579 4.8209 11.4257 4.40284C11.5935 3.98479 11.9011 3.63787 12.2961 3.42118C12.691 3.20449 13.1489 3.13145 13.5916 3.2145C14.0344 3.29755 14.4346 3.53156 14.7242 3.87665C15.0138 4.22173 15.1747 4.65655 15.1796 5.107C15.1845 5.55745 15.0331 5.99567 14.7511 6.34698C14.4691 6.69829 14.0741 6.94096 13.6332 7.03364C13.1924 7.12631 12.733 7.06326 12.3335 6.85523C12.1065 6.7369 11.9052 6.575 11.7408 6.37878C11.5765 6.18255 11.4525 5.95586 11.3759 5.71167L11.3757 5.71383ZM2.301 13.6979C2.14243 13.2062 2.18565 12.6717 2.42116 12.212C2.65667 11.7522 3.06518 11.4048 3.55682 11.2462C4.04846 11.0876 4.58295 11.1309 5.04272 11.3664C5.5025 11.6019 5.84988 12.0104 6.00846 12.502C6.0315 12.6358 6.05961 12.7613 6.09278 12.8786C6.13578 13.2307 6.0818 13.5878 5.93667 13.9114C5.79153 14.235 5.56076 14.5129 5.26926 14.7149C4.97776 14.917 4.6366 15.0356 4.28263 15.0579C3.92865 15.0802 3.5753 15.0054 3.26072 14.8416C3.03294 14.7241 2.8308 14.5624 2.66605 14.3661C2.50129 14.1697 2.3772 13.9426 2.301 13.6979Z" fill="black"/>
</g>
<defs>
<clipPath id="clip0_1_211">
<rect width="27" height="27" fill="white" transform="translate(0 27.5865) scale(1.02562) rotate(-85)"/>
</clipPath>
</defs>
</svg>
