<svg width="14" height="9" viewBox="0 0 14 9" fill="none" xmlns="http://www.w3.org/2000/svg">
<path d="M0.392843 7.90973C0.641674 8.15708 0.978276 8.29592 1.32913 8.29592C1.67999 8.29592 2.01659 8.15708 2.26542 7.90973L7.0332 3.20835L11.7346 7.90973C11.9834 8.15708 12.32 8.29592 12.6709 8.29592C13.0217 8.29592 13.3583 8.15708 13.6072 7.90973C13.7316 7.78627 13.8304 7.63938 13.8979 7.47754C13.9653 7.3157 14 7.14212 14 6.9668C14 6.79148 13.9653 6.61789 13.8979 6.45605C13.8304 6.29421 13.7316 6.14733 13.6072 6.02387L7.97613 0.39284C7.85267 0.268362 7.70579 0.169561 7.54395 0.102137C7.38211 0.0347128 7.20852 -9.53674e-07 7.0332 -9.53674e-07C6.85788 -9.53674e-07 6.68429 0.0347128 6.52246 0.102137C6.36062 0.169561 6.21373 0.268362 6.09027 0.39284L0.392843 6.02387C0.268365 6.14733 0.169564 6.29421 0.102139 6.45605C0.0347157 6.61789 0 6.79148 0 6.9668C0 7.14212 0.0347157 7.3157 0.102139 7.47754C0.169564 7.63938 0.268365 7.78627 0.392843 7.90973Z" fill="black"/>
</svg>
