<svg width="19" height="19" viewBox="0 0 19 19" fill="none" xmlns="http://www.w3.org/2000/svg">
<path d="M16.735 13.395V15.77C16.7358 15.9905 16.6924 16.2087 16.6076 16.4107C16.5227 16.6127 16.3982 16.7941 16.2421 16.9431C16.086 17.0922 15.9017 17.2057 15.701 17.2763C15.5003 17.3469 15.2877 17.3732 15.0767 17.3533C12.736 17.0886 10.4875 16.2562 8.51207 14.9229C6.67415 13.7074 5.11591 12.0857 3.94801 10.1729C2.66245 8.10762 1.86242 5.7562 1.61274 3.30917C1.59373 3.09024 1.61873 2.8696 1.68614 2.66129C1.75356 2.45297 1.86191 2.26155 2.00431 2.0992C2.1467 1.93685 2.32002 1.80714 2.51322 1.71833C2.70642 1.62951 2.91527 1.58354 3.12648 1.58333H5.40851C5.77767 1.57955 6.13556 1.7156 6.41546 1.96613C6.69537 2.21666 6.8782 2.56456 6.92986 2.945C7.02618 3.70505 7.20481 4.45133 7.46234 5.16958C7.56468 5.45294 7.58683 5.76089 7.52616 6.05695C7.46549 6.353 7.32455 6.62475 7.12003 6.84L6.15397 7.84542C7.23684 9.82739 8.81364 11.4684 10.718 12.5954L11.6841 11.59C11.8909 11.3771 12.152 11.2305 12.4365 11.1673C12.721 11.1042 13.0169 11.1272 13.2891 11.2337C13.9793 11.5018 14.6963 11.6877 15.4266 11.7879C15.7961 11.8422 16.1336 12.0359 16.3748 12.3322C16.6161 12.6285 16.7442 13.0067 16.735 13.395Z" stroke="black" stroke-opacity="0.8" stroke-linecap="round" stroke-linejoin="round"/>
</svg>
