<svg width="14" height="9" viewBox="0 0 14 9" fill="none" xmlns="http://www.w3.org/2000/svg">
<path d="M13.6072 0.386193C13.3583 0.138839 13.0217 0 12.6709 0C12.32 0 11.9834 0.138839 11.7346 0.386193L6.9668 5.08757L2.26542 0.386193C2.01659 0.138839 1.67999 0 1.32913 0C0.978274 0 0.641672 0.138839 0.392841 0.386193C0.268363 0.509655 0.169562 0.656541 0.102138 0.818379C0.0347131 0.980217 0 1.1538 0 1.32912C0 1.50445 0.0347131 1.67803 0.102138 1.83987C0.169562 2.00171 0.268363 2.14859 0.392841 2.27206L6.02387 7.90308C6.14733 8.02756 6.29421 8.12636 6.45605 8.19378C6.61789 8.26121 6.79148 8.29592 6.9668 8.29592C7.14212 8.29592 7.31571 8.26121 7.47754 8.19378C7.63938 8.12636 7.78627 8.02756 7.90973 7.90308L13.6072 2.27206C13.7316 2.14859 13.8304 2.00171 13.8979 1.83987C13.9653 1.67803 14 1.50445 14 1.32912C14 1.1538 13.9653 0.980217 13.8979 0.818379C13.8304 0.656541 13.7316 0.509655 13.6072 0.386193Z" fill="black"/>
</svg>
