<svg width="39" height="39" viewBox="0 0 39 39" fill="none" xmlns="http://www.w3.org/2000/svg">
<g clip-path="url(#clip0_1_209)">
<path d="M26.272 6.10464C26.0819 6.00553 25.8667 5.96513 25.6536 5.98858C25.4406 6.01203 25.2393 6.09828 25.0753 6.23635C24.9697 6.32833 24.8833 6.44022 24.8209 6.56563L19.8304 15.9337L15.5734 6.90022C15.4783 6.63367 15.2826 6.415 15.0281 6.29115C14.7737 6.16729 14.4808 6.14812 14.2124 6.23775C13.9439 6.32738 13.7213 6.51867 13.5924 6.77055C13.4634 7.02244 13.4383 7.31486 13.5224 7.58505L17.5981 20.1303L17.4952 20.3239C17.4765 20.3562 17.463 20.3913 17.4554 20.4279C17.4554 20.4279 17.1869 21.3392 15.1435 21.71C15.0509 21.7269 14.9664 21.7735 14.9028 21.8427C14.8391 21.9119 14.7997 22 14.7906 22.0936C14.6785 23.252 14.2139 24.8785 13.6336 24.9137L13.6203 24.9248C13.134 24.9511 12.663 25.1041 12.254 25.3685C11.845 25.633 11.5122 25.9997 11.2886 26.4325C11.0682 26.8583 10.9603 27.3335 10.9753 27.8128C10.9903 28.2921 11.1277 28.7596 11.3743 29.1708C11.6209 29.5821 11.9686 29.9234 12.3844 30.1624C12.8001 30.4014 13.2701 30.53 13.7496 30.5362L12.7668 32.0835C12.7201 32.1725 12.6948 32.2712 12.6927 32.3717C12.6907 32.4722 12.7121 32.5718 12.7551 32.6627C12.7981 32.7535 12.8617 32.8331 12.9408 32.8952C13.0199 32.9573 13.1123 33.0001 13.2107 33.0204C13.3092 33.0406 13.411 33.0377 13.5082 33.0118C13.6053 32.986 13.6951 32.938 13.7705 32.8715C13.8459 32.805 13.9049 32.7219 13.9426 32.6287C13.9804 32.5356 13.9961 32.4349 13.9883 32.3347L14.3597 30.4759C14.4457 30.4574 14.5307 30.4341 14.6142 30.4092C15.3258 30.1864 15.9198 29.6901 16.2655 29.0294C16.6112 28.3688 16.6802 27.5978 16.4575 26.8862C16.4455 26.8483 16.4301 26.8132 16.4164 26.7767C16.4027 26.7402 16.2431 25.7929 17.0189 24.295C17.4838 23.4023 18.9808 22.4341 20.2149 21.7684L23.7116 25.2627C23.7798 25.3439 24.097 25.8936 23.5602 26.8352C23.4759 26.9492 23.4002 27.0693 23.3338 27.1946L23.3173 27.2085C23.0647 27.7028 22.964 28.2607 23.028 28.8121C23.092 29.3635 23.3177 29.8836 23.6768 30.3069C24.0359 30.7301 24.5123 31.0377 25.0459 31.1906C25.5794 31.3436 26.1464 31.3352 26.6752 31.1666C27.0275 31.0563 27.3547 30.8777 27.638 30.6409C27.9214 30.4042 28.1553 30.114 28.3265 29.7868C28.4976 29.4597 28.6027 29.1021 28.6356 28.7343C28.6686 28.3666 28.6288 27.996 28.5185 27.6436C28.1135 26.3601 27.7279 25.9242 27.6204 25.8196L22.0832 20.2233L26.7456 7.53381C26.8679 7.28074 26.8868 6.99003 26.7984 6.72325C26.71 6.45647 26.5212 6.2346 26.272 6.10464ZM20.1203 19.4989C19.9683 19.4202 19.8431 19.298 19.7605 19.1481C19.678 18.9981 19.6418 18.827 19.6565 18.6564C19.6713 18.4859 19.7363 18.3235 19.8434 18.1899C19.9504 18.0564 20.0947 17.9575 20.258 17.906C20.4212 17.8545 20.5961 17.8525 20.7605 17.9004C20.9248 17.9483 21.0713 18.0439 21.1813 18.1751C21.2913 18.3063 21.3599 18.4671 21.3784 18.6373C21.3969 18.8075 21.3645 18.9794 21.2853 19.1311C21.1794 19.3342 20.9972 19.4869 20.7788 19.5559C20.5604 19.6248 20.3236 19.6044 20.1203 19.4989ZM15.4978 28.6259C15.2899 29.0254 14.9499 29.3404 14.5358 29.5173C14.1217 29.6942 13.659 29.722 13.2267 29.596C12.7943 29.47 12.4191 29.198 12.1648 28.8263C11.9105 28.4546 11.793 28.0063 11.8323 27.5577C11.8715 27.109 12.0651 26.6879 12.3801 26.366C12.695 26.0442 13.1118 25.8414 13.5594 25.7924C14.0071 25.7434 14.4579 25.8512 14.835 26.0973C15.2121 26.3434 15.4923 26.7126 15.6277 27.1421C15.7044 27.3862 15.7323 27.643 15.7098 27.8978C15.6872 28.1527 15.6146 28.4006 15.4962 28.6273L15.4978 28.6259ZM27.5561 29.3969C27.3207 29.8565 26.9123 30.2038 26.4208 30.3623C25.9294 30.5208 25.395 30.4776 24.9354 30.2422C24.4758 30.0068 24.1285 29.5984 23.97 29.1069C23.8115 28.6154 23.8547 28.0811 24.0901 27.6215C24.1684 27.5107 24.2373 27.4021 24.2967 27.2957C24.5152 27.0165 24.8058 26.8022 25.1371 26.676C25.4685 26.5499 25.828 26.5166 26.1769 26.5798C26.5257 26.643 26.8507 26.8004 27.1167 27.0348C27.3827 27.2692 27.5796 27.5719 27.6862 27.91C27.7641 28.1541 27.7927 28.4113 27.7704 28.6665C27.7481 28.9218 27.6752 29.1701 27.5561 29.3969Z" fill="black"/>
</g>
<defs>
<clipPath id="clip0_1_209">
<rect width="27" height="27" fill="white" transform="translate(39 21.206) scale(1.02527) rotate(140)"/>
</clipPath>
</defs>
</svg>
