<svg width="26" height="26" viewBox="0 0 26 26" fill="none" xmlns="http://www.w3.org/2000/svg">
<g clip-path="url(#clip0_1_279)">
<path d="M0.0406412 18.5494C0.117544 18.7354 0.248005 18.8944 0.415456 19.0062C0.582907 19.1179 0.779793 19.1774 0.98111 19.177C1.11264 19.1746 1.2424 19.1463 1.36299 19.0938L10.6092 15.3664L8.21845 24.436C8.12592 24.6851 8.13475 24.9606 8.24305 25.2034C8.35135 25.4461 8.55049 25.6367 8.79773 25.7343C9.04497 25.8318 9.32061 25.8286 9.56548 25.7252C9.81036 25.6219 10.005 25.4266 10.1075 25.1814L14.7489 13.6947L14.9399 13.6175C14.9729 13.6056 15.0037 13.5885 15.0313 13.5667C15.0313 13.5667 15.7747 13.0731 17.4688 14.04C17.5455 14.0837 17.6344 14.1012 17.722 14.0899C17.8097 14.0785 17.8912 14.0389 17.9542 13.977C18.7342 13.2113 20.0505 12.3216 20.4892 12.6466H20.5055C20.8713 12.9213 21.3025 13.0956 21.7564 13.1523C22.2104 13.2089 22.6712 13.1459 23.0933 12.9695C23.509 12.7962 23.8735 12.5195 24.152 12.1656C24.4306 11.8117 24.614 11.3924 24.6849 10.9476C24.7557 10.5028 24.7116 10.0473 24.5568 9.62438C24.4019 9.20144 24.1415 8.82515 23.8002 8.53126L25.4414 8.01126C25.5288 7.9754 25.6066 7.91972 25.6687 7.84864C25.7309 7.77756 25.7756 7.693 25.7995 7.60165C25.8234 7.5103 25.8257 7.41466 25.8063 7.32226C25.7869 7.22986 25.7462 7.14323 25.6876 7.06922C25.629 6.99521 25.554 6.93583 25.4685 6.89577C25.383 6.8557 25.2894 6.83606 25.195 6.83838C25.1006 6.8407 25.008 6.86492 24.9246 6.90913C24.8412 6.95334 24.7691 7.01633 24.7142 7.09314L23.3249 8.20626C23.2517 8.16767 23.1766 8.13314 23.1014 8.10064C22.455 7.83128 21.728 7.82976 21.0804 8.09641C20.4328 8.36306 19.9177 8.87605 19.6483 9.52251C19.6341 9.55704 19.6239 9.59158 19.6117 9.62611C19.5995 9.66064 19.1425 10.4386 17.68 11.048C16.8066 11.4095 15.145 11.2024 13.8552 10.9363L13.4489 6.31111C13.4489 6.21158 13.5525 5.62454 14.5072 5.27111C14.6367 5.24001 14.7636 5.19927 14.887 5.14923H14.9074C15.3875 4.94613 15.7968 4.60544 16.0836 4.1701C16.3705 3.73477 16.522 3.22426 16.5192 2.70293C16.5164 2.1816 16.3593 1.67276 16.0678 1.24056C15.7762 0.808354 15.3633 0.47212 14.881 0.274231C14.5609 0.140857 14.2176 0.0718372 13.8709 0.0711117C13.5241 0.0703863 13.1806 0.13797 12.8599 0.270003C12.5393 0.402036 12.2478 0.595934 12.002 0.840625C11.7563 1.08532 11.5612 1.37601 11.4278 1.69611C10.9444 2.86407 10.9586 3.41048 10.9728 3.55064L11.5781 10.92L0.562672 17.2352C0.321934 17.3434 0.132806 17.5412 0.0353611 17.7865C-0.0620841 18.0318 -0.0601903 18.3054 0.0406412 18.5494ZM12.5531 12.6263C12.6149 12.7747 12.6313 12.9381 12.6001 13.0959C12.569 13.2536 12.4917 13.3986 12.3781 13.5124C12.2646 13.6262 12.1198 13.7038 11.9621 13.7352C11.8044 13.7667 11.6409 13.7507 11.4924 13.6892C11.3438 13.6278 11.2168 13.5236 11.1275 13.3899C11.0381 13.2562 10.9905 13.099 10.9905 12.9382C10.9906 12.7774 11.0383 12.6203 11.1277 12.4866C11.2172 12.353 11.3442 12.2489 11.4928 12.1875C11.6916 12.1054 11.9149 12.1055 12.1137 12.1877C12.3124 12.27 12.4705 12.4277 12.5531 12.6263ZM21.3891 8.85017C21.7798 8.68829 22.2146 8.6669 22.6194 8.78966C23.0241 8.91242 23.3738 9.17172 23.6088 9.52339C23.8438 9.87506 23.9496 10.2973 23.9081 10.7182C23.8667 11.1392 23.6805 11.5327 23.3815 11.8318C23.0824 12.1308 22.6889 12.317 22.2679 12.3584C21.847 12.3999 21.4247 12.2941 21.0731 12.0591C20.7214 11.8241 20.4621 11.4744 20.3393 11.0697C20.2166 10.6649 20.238 10.2301 20.3999 9.83939C20.492 9.61745 20.6269 9.41584 20.797 9.2461C20.9671 9.07636 21.169 8.94182 21.3911 8.85017H21.3891ZM13.1788 1.01564C13.6256 0.827085 14.1291 0.823773 14.5784 1.00643C15.0277 1.18909 15.3861 1.54275 15.5746 1.98962C15.7632 2.43649 15.7665 2.93996 15.5838 3.38927C15.4012 3.83858 15.0475 4.19693 14.6006 4.38548C14.4774 4.41798 14.3623 4.45454 14.2553 4.49517C13.9296 4.5642 13.5911 4.54293 13.2765 4.43367C12.962 4.3244 12.6832 4.13129 12.4704 3.87517C12.2575 3.61905 12.1187 3.30966 12.0688 2.98041C12.019 2.65115 12.06 2.31453 12.1875 2.00689C12.2788 1.78422 12.4135 1.58193 12.5836 1.41176C12.7538 1.24159 12.9561 1.10694 13.1788 1.01564Z" fill="#C3C3C3"/>
</g>
<defs>
<clipPath id="clip0_1_279">
<rect width="26" height="26" fill="white"/>
</clipPath>
</defs>
</svg>
