<svg width="9" height="14" viewBox="0 0 9 14" fill="none" xmlns="http://www.w3.org/2000/svg">
<path d="M0.386193 0.392843C0.138839 0.641674 0 0.978276 0 1.32913C0 1.67999 0.138839 2.01659 0.386193 2.26542L5.08757 7.0332L0.386193 11.7346C0.138839 11.9834 0 12.32 0 12.6709C0 13.0217 0.138839 13.3583 0.386193 13.6072C0.509655 13.7316 0.656541 13.8304 0.818379 13.8979C0.980217 13.9653 1.1538 14 1.32912 14C1.50445 14 1.67803 13.9653 1.83987 13.8979C2.00171 13.8304 2.14859 13.7316 2.27206 13.6072L7.90308 7.97613C8.02756 7.85267 8.12636 7.70579 8.19378 7.54395C8.26121 7.38211 8.29592 7.20852 8.29592 7.0332C8.29592 6.85788 8.26121 6.68429 8.19378 6.52246C8.12636 6.36062 8.02756 6.21373 7.90308 6.09027L2.27206 0.392843C2.14859 0.268365 2.00171 0.169564 1.83987 0.102139C1.67803 0.0347157 1.50445 0 1.32912 0C1.1538 0 0.980217 0.0347157 0.818379 0.102139C0.656541 0.169564 0.509655 0.268365 0.386193 0.392843Z" fill="black" fill-opacity="0.8"/>
</svg>
