<svg width="36" height="33" viewBox="0 0 36 33" fill="none" xmlns="http://www.w3.org/2000/svg">
<path d="M9.37088 26.2585C8.1953 26.2565 7.04998 25.8857 6.09617 25.1985C5.14236 24.5114 4.4281 23.5423 4.05396 22.4279L4.00247 22.2562C3.83418 21.7301 3.74624 21.1816 3.7416 20.6292V10.4004L0.103163 22.5514C-0.114473 23.4158 0.0151731 24.3311 0.464313 25.1011C0.913453 25.871 1.64634 26.4344 2.5059 26.6704L25.7061 32.8832C25.9886 32.9565 26.2792 32.9934 26.5711 32.9931C27.302 32.9939 28.013 32.7555 28.5957 32.3142C29.1783 31.8728 29.6004 31.2529 29.7976 30.5491L31.15 26.2585H9.37088ZM13.4967 10.5034C14.0901 10.5034 14.6701 10.3275 15.1634 9.99782C15.6568 9.66817 16.0413 9.19964 16.2684 8.65146C16.4954 8.10328 16.5548 7.50008 16.4391 6.91814C16.3233 6.3362 16.0376 5.80165 15.618 5.3821C15.1985 4.96254 14.6639 4.67682 14.082 4.56106C13.5001 4.44531 12.8969 4.50472 12.3487 4.73178C11.8005 4.95884 11.332 5.34336 11.0023 5.83671C10.6727 6.33005 10.4967 6.91007 10.4967 7.50341C10.4976 8.29878 10.814 9.06131 11.3764 9.62372C11.9388 10.1861 12.7014 10.5025 13.4967 10.5034Z" fill="white"/>
<path d="M32.2586 0H9.74496C8.75022 0.00090885 7.79649 0.396469 7.0931 1.09985C6.38972 1.80324 5.99416 2.75697 5.99325 3.75171V20.2517C5.99325 21.247 6.38841 22.2016 7.09189 22.9057C7.79537 23.6099 8.74963 24.0059 9.74496 24.0068H32.2586C33.2522 24.0032 34.2038 23.6059 34.9051 22.9021C35.6063 22.1983 36.0001 21.2452 36 20.2517V3.75171C35.9991 2.75875 35.605 1.80657 34.9038 1.10348C34.2027 0.400391 33.2516 0.00363015 32.2586 0ZM9.74496 2.99999H32.2586C32.458 2.99999 32.6492 3.07919 32.7902 3.22017C32.9312 3.36114 33.0104 3.55234 33.0104 3.75171V14.4164L28.2598 8.87298C28.0093 8.58509 27.7003 8.35386 27.3535 8.19465C27.0067 8.03544 26.63 7.95192 26.2484 7.94964C25.8653 7.95157 25.4873 8.03738 25.141 8.20105C24.7947 8.36473 24.4884 8.60228 24.2438 8.89701L18.6729 15.5835L16.8571 13.7711C16.3634 13.2781 15.6943 13.0012 14.9967 13.0012C14.299 13.0012 13.6299 13.2781 13.1363 13.7711L8.99324 17.9141V3.75171C8.99324 3.55234 9.07244 3.36114 9.21342 3.22017C9.35439 3.07919 9.54559 2.99999 9.74496 2.99999Z" fill="white"/>
</svg>
