<svg width="34" height="29" viewBox="0 0 34 29" fill="none" xmlns="http://www.w3.org/2000/svg">
<path d="M13.3846 29C13.2015 28.9991 13.0215 28.9531 12.8604 28.8662C12.6823 28.7713 12.5332 28.6299 12.4291 28.4571C12.325 28.2842 12.2698 28.0864 12.2692 27.8846V24.5385H5.57692C4.84455 24.5385 4.11935 24.3942 3.44273 24.1139C2.7661 23.8337 2.15131 23.4229 1.63344 22.905C0.587567 21.8591 0 20.4406 0 18.9615V5.57692C0 4.09783 0.587567 2.67932 1.63344 1.63344C2.67932 0.587567 4.09783 0 5.57692 0H27.8846C29.3637 0 30.7822 0.587567 31.8281 1.63344C32.874 2.67932 33.4615 4.09783 33.4615 5.57692V18.9615C33.4615 20.4406 32.874 21.8591 31.8281 22.905C30.7822 23.9509 29.3637 24.5385 27.8846 24.5385H20.4115L13.9981 28.8104C13.8166 28.9324 13.6033 28.9983 13.3846 29ZM10.0385 10.0385C9.59726 10.0385 9.16596 10.1693 8.79911 10.4144C8.43226 10.6595 8.14634 11.0079 7.9775 11.4156C7.80866 11.8232 7.76448 12.2717 7.85056 12.7044C7.93663 13.1372 8.14909 13.5346 8.46107 13.8466C8.77305 14.1586 9.17053 14.3711 9.60326 14.4571C10.036 14.5432 10.4845 14.499 10.8921 14.3302C11.2998 14.1614 11.6482 13.8754 11.8933 13.5086C12.1384 13.1417 12.2692 12.7104 12.2692 12.2692C12.2692 11.6776 12.0342 11.1102 11.6159 10.6918C11.1975 10.2735 10.6301 10.0385 10.0385 10.0385ZM16.7308 10.0385C16.2896 10.0385 15.8583 10.1693 15.4914 10.4144C15.1246 10.6595 14.8386 11.0079 14.6698 11.4156C14.501 11.8232 14.4568 12.2717 14.5429 12.7044C14.6289 13.1372 14.8414 13.5346 15.1534 13.8466C15.4654 14.1586 15.8628 14.3711 16.2956 14.4571C16.7283 14.5432 17.1768 14.499 17.5844 14.3302C17.9921 14.1614 18.3405 13.8754 18.5856 13.5086C18.8307 13.1417 18.9615 12.7104 18.9615 12.2692C18.9615 11.6776 18.7265 11.1102 18.3082 10.6918C17.8898 10.2735 17.3224 10.0385 16.7308 10.0385ZM23.4231 10.0385C22.9819 10.0385 22.5506 10.1693 22.1837 10.4144C21.8169 10.6595 21.531 11.0079 21.3621 11.4156C21.1933 11.8232 21.1491 12.2717 21.2352 12.7044C21.3212 13.1372 21.5337 13.5346 21.8457 13.8466C22.1577 14.1586 22.5551 14.3711 22.9879 14.4571C23.4206 14.5432 23.8691 14.499 24.2768 14.3302C24.6844 14.1614 25.0328 13.8754 25.2779 13.5086C25.523 13.1417 25.6538 12.7104 25.6538 12.2692C25.6538 11.6776 25.4188 11.1102 25.0005 10.6918C24.5821 10.2735 24.0147 10.0385 23.4231 10.0385Z" fill="white"/>
</svg>
