<svg width="48" height="48" viewBox="0 0 48 48" fill="none" xmlns="http://www.w3.org/2000/svg">
<g filter="url(#filter0_d_1_314)">
<path d="M24 20.528C23.3133 20.528 22.642 20.7316 22.0711 21.1131C21.5001 21.4946 21.0551 22.0369 20.7923 22.6713C20.5295 23.3057 20.4607 24.0039 20.5947 24.6774C20.7287 25.3509 21.0594 25.9695 21.5449 26.4551C22.0305 26.9406 22.6491 27.2713 23.3226 27.4053C23.9961 27.5393 24.6943 27.4705 25.3287 27.2077C25.9631 26.9449 26.5054 26.4999 26.8869 25.9289C27.2684 25.358 27.472 24.6867 27.472 24C27.472 23.5441 27.3822 23.0926 27.2077 22.6713C27.0332 22.2501 26.7775 21.8673 26.4551 21.5449C26.1327 21.2225 25.7499 20.9668 25.3287 20.7923C24.9074 20.6178 24.4559 20.528 24 20.528ZM37.902 17.098C37.8946 16.0169 37.6956 14.9456 37.314 13.934C37.033 13.1938 36.5982 12.5215 36.0383 11.9617C35.4785 11.4018 34.8062 10.967 34.066 10.686C33.0544 10.3044 31.9831 10.1054 30.902 10.098C29.096 10 28.564 10 24 10C19.436 10 18.904 10 17.098 10.098C16.0169 10.1054 14.9456 10.3044 13.934 10.686C13.1938 10.967 12.5215 11.4018 11.9617 11.9617C11.4018 12.5215 10.967 13.1938 10.686 13.934C10.3044 14.9456 10.1054 16.0169 10.098 17.098C10 18.904 10 19.436 10 24C10 28.564 10 29.096 10.098 30.902C10.1131 31.9869 10.3119 33.0615 10.686 34.08C10.9658 34.8169 11.4002 35.4852 11.96 36.04C12.5175 36.6032 13.1911 37.038 13.934 37.314C14.9456 37.6956 16.0169 37.8946 17.098 37.902C18.904 38 19.436 38 24 38C28.564 38 29.096 38 30.902 37.902C31.9831 37.8946 33.0544 37.6956 34.066 37.314C34.8089 37.038 35.4825 36.6032 36.04 36.04C36.5998 35.4852 37.0342 34.8169 37.314 34.08C37.6952 33.0634 37.8942 31.9877 37.902 30.902C38 29.096 38 28.564 38 24C38 19.436 38 18.904 37.902 17.098ZM34.346 28.298C34.3011 29.1619 34.1167 30.0129 33.8 30.818C33.5282 31.4896 33.1242 32.0996 32.6119 32.6119C32.0996 33.1242 31.4896 33.5282 30.818 33.8C30.0053 34.099 29.1496 34.2645 28.284 34.29C27.178 34.29 26.884 34.29 24 34.29C21.116 34.29 20.822 34.29 19.716 34.29C18.8504 34.2645 17.9947 34.099 17.182 33.8C16.4877 33.542 15.8608 33.1304 15.348 32.596C14.8407 32.0938 14.449 31.487 14.2 30.818C13.8998 30.0062 13.7388 29.1494 13.724 28.284C13.724 27.178 13.724 26.884 13.724 24C13.724 21.116 13.724 20.822 13.724 19.716C13.7388 18.8506 13.8998 17.9938 14.2 17.182C14.458 16.4877 14.8696 15.8608 15.404 15.348C15.9085 14.8435 16.5146 14.4521 17.182 14.2C17.9947 13.901 18.8504 13.7355 19.716 13.71C20.822 13.71 21.116 13.71 24 13.71C26.884 13.71 27.178 13.71 28.284 13.71C29.1496 13.7355 30.0053 13.901 30.818 14.2C31.5123 14.458 32.1392 14.8696 32.652 15.404C33.1593 15.9062 33.551 16.513 33.8 17.182C34.099 17.9947 34.2645 18.8504 34.29 19.716C34.29 20.822 34.29 21.116 34.29 24C34.29 26.884 34.388 27.178 34.346 28.284V28.298ZM32.106 17.882C31.9393 17.4298 31.6765 17.0191 31.3357 16.6783C30.9949 16.3375 30.5842 16.0747 30.132 15.908C29.5111 15.6928 28.8571 15.5885 28.2 15.6C27.108 15.6 26.8 15.6 24 15.6C21.2 15.6 20.892 15.6 19.8 15.6C19.1396 15.6065 18.4855 15.7297 17.868 15.964C17.4227 16.1231 17.0164 16.3752 16.676 16.7035C16.3357 17.0318 16.0691 17.4287 15.894 17.868C15.6907 18.4915 15.5914 19.1442 15.6 19.8C15.6 20.892 15.6 21.2 15.6 24C15.6 26.8 15.6 27.108 15.6 28.2C15.6139 28.8597 15.7369 29.5125 15.964 30.132C16.1307 30.5842 16.3935 30.9949 16.7343 31.3357C17.0751 31.6765 17.4858 31.9393 17.938 32.106C18.5353 32.3257 19.1639 32.4486 19.8 32.47C20.892 32.47 21.2 32.47 24 32.47C26.8 32.47 27.108 32.47 28.2 32.47C28.8604 32.4635 29.5145 32.3403 30.132 32.106C30.5842 31.9393 30.9949 31.6765 31.3357 31.3357C31.6765 30.9949 31.9393 30.5842 32.106 30.132C32.3403 29.5145 32.4635 28.8604 32.47 28.2C32.47 27.108 32.47 26.8 32.47 24C32.47 21.2 32.47 20.892 32.47 19.8C32.4704 19.1389 32.3469 18.4836 32.106 17.868V17.882ZM24 29.348C23.2983 29.348 22.6036 29.2096 21.9555 28.9406C21.3075 28.6717 20.7188 28.2776 20.2233 27.7808C19.7278 27.284 19.3352 26.6943 19.068 26.0455C18.8008 25.3968 18.6642 24.7016 18.666 24C18.666 22.9417 18.98 21.9071 19.5683 21.0274C20.1565 20.1476 20.9926 19.4621 21.9707 19.0578C22.9487 18.6534 24.0247 18.5483 25.0625 18.7558C26.1003 18.9633 27.0532 19.474 27.8006 20.2234C28.5479 20.9727 29.0562 21.9269 29.2609 22.9653C29.4657 24.0036 29.3578 25.0793 28.9509 26.0563C28.544 27.0333 27.8563 27.8676 26.975 28.4535C26.0937 29.0395 25.0583 29.3508 24 29.348ZM29.6 19.702C29.2905 19.6692 29.0041 19.5231 28.796 19.2918C28.5878 19.0604 28.4726 18.7602 28.4726 18.449C28.4726 18.1378 28.5878 17.8376 28.796 17.6062C29.0041 17.3749 29.2905 17.2288 29.6 17.196C29.9095 17.2288 30.1959 17.3749 30.404 17.6062C30.6122 17.8376 30.7274 18.1378 30.7274 18.449C30.7274 18.7602 30.6122 19.0604 30.404 19.2918C30.1959 19.5231 29.9095 19.6692 29.6 19.702Z" fill="black"/>
</g>
<defs>
<filter id="filter0_d_1_314" x="0" y="0" width="48" height="48" filterUnits="userSpaceOnUse" color-interpolation-filters="sRGB">
<feFlood flood-opacity="0" result="BackgroundImageFix"/>
<feColorMatrix in="SourceAlpha" type="matrix" values="0 0 0 0 0 0 0 0 0 0 0 0 0 0 0 0 0 0 127 0" result="hardAlpha"/>
<feOffset/>
<feGaussianBlur stdDeviation="5"/>
<feComposite in2="hardAlpha" operator="out"/>
<feColorMatrix type="matrix" values="0 0 0 0 0 0 0 0 0 0 0 0 0 0 0 0 0 0 0.2 0"/>
<feBlend mode="normal" in2="BackgroundImageFix" result="effect1_dropShadow_1_314"/>
<feBlend mode="normal" in="SourceGraphic" in2="effect1_dropShadow_1_314" result="shape"/>
</filter>
</defs>
</svg>
