<svg width="30" height="30" viewBox="0 0 30 30" fill="none" xmlns="http://www.w3.org/2000/svg">
<path d="M29.884 17.509L28.194 10.786C28.1104 10.4293 27.9373 10.0997 27.6909 9.82848C27.4446 9.55727 27.1331 9.35335 26.786 9.236C26.3199 9.07982 25.8316 9.00013 25.34 9H3.50001C3.40234 8.9999 3.30679 9.02845 3.2252 9.08214C3.14361 9.13582 3.07957 9.21227 3.04101 9.302L0.140012 16.04C0.016345 16.3718 -0.0252663 16.7285 0.0187251 17.0798C0.0627166 17.4312 0.191006 17.7667 0.392658 18.0577C0.59431 18.3487 0.863344 18.5867 1.17683 18.7513C1.49031 18.9159 1.83894 19.0022 2.19301 19.003H4.98601L5.01801 19.155C5.13201 19.575 5.35401 19.96 5.66201 20.268C6.11901 20.728 6.80601 21.001 7.51201 21.001L27.823 20.502C28.1747 20.4864 28.5179 20.3894 28.8258 20.2188C29.1337 20.0481 29.3978 19.8084 29.5974 19.5185C29.797 19.2286 29.9267 18.8963 29.9762 18.5478C30.0258 18.1993 29.9939 17.8441 29.883 17.51L29.884 17.509ZM2.19301 18.002C2.00221 18.0019 1.8142 17.9561 1.64474 17.8685C1.47528 17.7808 1.3293 17.6538 1.21903 17.4981C1.10875 17.3423 1.03741 17.1625 1.01096 16.9735C0.984509 16.7846 1.00373 16.592 1.06701 16.412L3.33501 11.146L4.77501 18.002H2.19301ZM22.51 16.75L11.51 17H11.5C11.3674 17.0015 11.2396 16.9502 11.1448 16.8574C11.05 16.7647 10.996 16.6381 10.9945 16.5055C10.9931 16.3729 11.0443 16.2451 11.1371 16.1503C11.2298 16.0555 11.3564 16.0015 11.489 16L22.489 15.75C22.815 15.75 22.994 15.963 23 16.239C23.0015 16.3047 22.99 16.37 22.9662 16.4312C22.9424 16.4924 22.9068 16.5484 22.8614 16.5958C22.816 16.6433 22.7617 16.6813 22.7015 16.7078C22.6414 16.7342 22.5757 16.7486 22.51 16.75ZM23.508 13.75L9.50801 14H9.50001C9.43435 14.0006 9.36922 13.9882 9.30833 13.9637C9.24744 13.9391 9.19199 13.9027 9.14514 13.8567C9.09829 13.8107 9.06097 13.7559 9.03529 13.6955C9.00962 13.6351 8.9961 13.5702 8.99551 13.5045C8.99492 13.4388 9.00727 13.3737 9.03185 13.3128C9.05643 13.2519 9.09276 13.1965 9.13878 13.1496C9.18479 13.1028 9.23958 13.0655 9.30001 13.0398C9.36045 13.0141 9.42535 13.0006 9.49101 13L23.491 12.75C23.5569 12.7479 23.6226 12.759 23.6841 12.7827C23.7457 12.8063 23.8018 12.8421 23.8493 12.8879C23.8967 12.9337 23.9345 12.9885 23.9604 13.0492C23.9863 13.1098 23.9998 13.1751 24 13.241C24.0012 13.3067 23.9894 13.3719 23.9654 13.433C23.9414 13.4942 23.9055 13.5499 23.86 13.5972C23.8144 13.6445 23.7599 13.6823 23.6997 13.7085C23.6395 13.7347 23.5747 13.7488 23.509 13.75H23.508Z" fill="#C3C3C3"/>
</svg>
