<svg width="9" height="14" viewBox="0 0 9 14" fill="none" xmlns="http://www.w3.org/2000/svg">
<path d="M7.90973 13.6072C8.15708 13.3583 8.29592 13.0217 8.29592 12.6709C8.29592 12.32 8.15708 11.9834 7.90973 11.7346L3.20835 6.9668L7.90973 2.26542C8.15708 2.01659 8.29592 1.67999 8.29592 1.32913C8.29592 0.978274 8.15708 0.641672 7.90973 0.392841C7.78627 0.268363 7.63938 0.169562 7.47754 0.102138C7.3157 0.0347131 7.14212 0 6.9668 0C6.79148 0 6.61789 0.0347131 6.45605 0.102138C6.29421 0.169562 6.14733 0.268363 6.02387 0.392841L0.39284 6.02387C0.268362 6.14733 0.169561 6.29421 0.102137 6.45605C0.0347128 6.61789 -9.53674e-07 6.79148 -9.53674e-07 6.9668C-9.53674e-07 7.14212 0.0347128 7.31571 0.102137 7.47754C0.169561 7.63938 0.268362 7.78627 0.39284 7.90973L6.02387 13.6072C6.14733 13.7316 6.29421 13.8304 6.45605 13.8979C6.61789 13.9653 6.79148 14 6.9668 14C7.14212 14 7.3157 13.9653 7.47754 13.8979C7.63938 13.8304 7.78627 13.7316 7.90973 13.6072Z" fill="black"/>
</svg>
