<svg width="30" height="30" viewBox="0 0 30 30" fill="none" xmlns="http://www.w3.org/2000/svg">
<g clip-path="url(#clip0_1_211)">
<path d="M19.1932 28.534C19.3927 28.4713 19.569 28.3507 19.6997 28.1876C19.8305 28.0245 19.9098 27.8262 19.9277 27.6179C19.9371 27.4816 19.9196 27.3448 19.8761 27.2153L16.857 17.3126L26.0231 20.6068C26.2725 20.7251 26.5583 20.7409 26.8192 20.6508C27.0801 20.5607 27.2953 20.372 27.4187 20.125C27.542 19.8781 27.5636 19.5926 27.4788 19.33C27.394 19.0673 27.2097 18.8483 26.9653 18.72L15.5022 12.8788L15.4397 12.6743C15.4303 12.6391 15.4154 12.6056 15.3954 12.5751C15.3954 12.5751 14.9521 11.7614 16.1056 10.0963C16.1578 10.0209 16.184 9.93048 16.1801 9.83882C16.1763 9.74717 16.1427 9.65926 16.0844 9.58841C15.3628 8.71219 14.5616 7.26999 14.9375 6.84551L14.939 6.8287C15.2562 6.47516 15.4756 6.04482 15.5753 5.58035C15.675 5.11589 15.6516 4.63343 15.5073 4.18082C15.3656 3.73508 15.1123 3.33299 14.7714 3.01276C14.4305 2.69254 14.0133 2.46484 13.5596 2.3513C13.1059 2.23776 12.6307 2.24215 12.1791 2.36407C11.7276 2.48599 11.3147 2.72137 10.9798 3.04785L10.5904 1.30289C10.5612 1.20929 10.5107 1.12376 10.4428 1.05304C10.3748 0.98232 10.2914 0.928347 10.1991 0.895381C10.1067 0.862415 10.008 0.851358 9.91067 0.863081C9.81332 0.874804 9.72003 0.908987 9.63816 0.962933C9.55628 1.01688 9.48806 1.08911 9.43888 1.17393C9.3897 1.25876 9.3609 1.35385 9.35476 1.4517C9.34861 1.54956 9.36529 1.6475 9.40348 1.73781C9.44167 1.82812 9.50031 1.90832 9.5748 1.97208L10.6006 3.51015C10.554 3.5823 10.5115 3.65693 10.4711 3.73174C10.1339 4.37613 10.0666 5.12807 10.2838 5.82214C10.501 6.51621 10.9851 7.09555 11.6295 7.43272C11.6639 7.45055 11.6987 7.46419 11.7334 7.47992C11.768 7.49565 12.5314 8.03887 13.0295 9.60699C13.3245 10.5433 12.9597 12.2434 12.5677 13.5537L7.74618 13.5554C7.64321 13.5464 7.0453 13.3861 6.76607 12.3664C6.74562 12.2297 6.71497 12.0947 6.67437 11.9625L6.67621 11.9415C6.50956 11.4263 6.19415 10.9721 5.76975 10.636C5.34536 10.2998 4.83095 10.0968 4.29137 10.0526C3.75179 10.0083 3.21118 10.1247 2.73768 10.3872C2.26417 10.6497 1.87896 11.0465 1.63058 11.5275C1.46364 11.8466 1.36117 12.1954 1.32903 12.5541C1.2969 12.9128 1.33572 13.2743 1.44329 13.6179C1.55086 13.9616 1.72506 14.2807 1.95596 14.5571C2.18685 14.8334 2.46992 15.0616 2.78899 15.2285C3.95351 15.8344 4.52006 15.8691 4.66634 15.8671L12.3448 15.9079L17.8809 27.875C17.9711 28.1339 18.1586 28.3474 18.4036 28.4705C18.6485 28.5935 18.9318 28.6163 19.1932 28.534ZM14.1982 15.0536C14.3574 15.0032 14.5279 15.001 14.6883 15.0475C14.8487 15.0941 14.9916 15.1871 15.0991 15.3149C15.2065 15.4427 15.2737 15.5995 15.292 15.7655C15.3103 15.9314 15.2789 16.0991 15.2018 16.2472C15.1248 16.3954 15.0055 16.5173 14.8591 16.5976C14.7127 16.678 14.5458 16.713 14.3795 16.6984C14.2132 16.6838 14.0549 16.6202 13.9247 16.5156C13.7946 16.411 13.6984 16.2701 13.6483 16.1108C13.5814 15.8977 13.6017 15.6668 13.7047 15.4686C13.8078 15.2704 13.9853 15.1212 14.1982 15.0536ZM11.0915 5.57101C10.9594 5.15212 10.9766 4.70039 11.1403 4.29278C11.3039 3.88518 11.6038 3.54692 11.9889 3.33564C12.3739 3.12437 12.8204 3.05315 13.2521 3.13413C13.6837 3.21511 14.074 3.44327 14.3563 3.77973C14.6387 4.1162 14.7956 4.54015 14.8004 4.97935C14.8052 5.41854 14.6575 5.84581 14.3826 6.18835C14.1076 6.53088 13.7224 6.76749 13.2926 6.85785C12.8628 6.94821 12.4149 6.88674 12.0253 6.6839C11.8041 6.56853 11.6077 6.41067 11.4475 6.21935C11.2873 6.02803 11.1664 5.807 11.0917 5.56891L11.0915 5.57101ZM2.24351 13.3556C2.0889 12.8762 2.13104 12.3551 2.36067 11.9068C2.5903 11.4585 2.9886 11.1198 3.46795 10.9652C3.94731 10.8106 4.46845 10.8527 4.91674 11.0823C5.36502 11.312 5.70373 11.7103 5.85834 12.1896C5.88081 12.3201 5.90822 12.4424 5.94056 12.5568C5.98249 12.9001 5.92986 13.2483 5.78835 13.5638C5.64684 13.8793 5.42183 14.1502 5.13761 14.3472C4.85339 14.5442 4.52076 14.6599 4.17563 14.6816C3.8305 14.7034 3.48598 14.6305 3.17926 14.4707C2.95717 14.3561 2.76008 14.1985 2.59944 14.0071C2.4388 13.8157 2.31781 13.5942 2.24351 13.3556Z" fill="black"/>
</g>
<defs>
<clipPath id="clip0_1_211">
<rect width="27" height="27" fill="white" transform="translate(0 26.8972) rotate(-85)"/>
</clipPath>
</defs>
</svg>
