<svg width="27" height="28" viewBox="0 0 27 28" fill="none" xmlns="http://www.w3.org/2000/svg">
<g clip-path="url(#clip0_1_213)">
<path d="M0.0423828 19.2742C0.122244 19.4674 0.257722 19.6325 0.431613 19.7486C0.605505 19.8646 0.809963 19.9264 1.01902 19.926C1.15561 19.9235 1.29036 19.8941 1.41559 19.8395L11.0175 15.9688L8.53473 25.3872C8.43863 25.6459 8.4478 25.932 8.56027 26.1841C8.67274 26.4362 8.87954 26.6341 9.13628 26.7354C9.39303 26.8367 9.67927 26.8334 9.93356 26.726C10.1879 26.6187 10.3899 26.4159 10.4964 26.1613L15.3164 14.2328L15.5146 14.1526C15.5489 14.1403 15.581 14.1224 15.6096 14.0999C15.6096 14.0999 16.3816 13.5873 18.1408 14.5914C18.2205 14.6368 18.3129 14.6549 18.4038 14.6431C18.4948 14.6313 18.5795 14.5902 18.645 14.526C19.455 13.7308 20.8218 12.8068 21.2775 13.1443H21.2943C21.6742 13.4296 22.122 13.6106 22.5934 13.6695C23.0648 13.7283 23.5434 13.6629 23.9817 13.4797C24.4134 13.2998 24.7919 13.0123 25.0811 12.6448C25.3704 12.2773 25.5609 11.8419 25.6345 11.38C25.7081 10.9181 25.6623 10.4451 25.5014 10.0059C25.3406 9.56671 25.0702 9.17594 24.7157 8.87075L26.4201 8.33075C26.5108 8.29351 26.5916 8.23569 26.6562 8.16187C26.7207 8.08806 26.7672 8.00025 26.792 7.90539C26.8168 7.81053 26.8192 7.7112 26.799 7.61525C26.7788 7.51929 26.7367 7.42934 26.6758 7.35248C26.6149 7.27562 26.537 7.21395 26.4482 7.17235C26.3594 7.13075 26.2622 7.11035 26.1642 7.11276C26.0662 7.11517 25.97 7.14032 25.8834 7.18623C25.7968 7.23214 25.722 7.29756 25.665 7.37731L24.2221 8.53325C24.1462 8.49318 24.0682 8.45732 23.9901 8.42357C23.3188 8.14385 22.5638 8.14227 21.8913 8.41917C21.2188 8.69608 20.6839 9.2288 20.4042 9.90013C20.3894 9.93599 20.3789 9.97185 20.3662 10.0077C20.3536 10.0436 19.8789 10.8515 18.3602 11.4843C17.4532 11.8597 15.7277 11.6446 14.3882 11.3683L13.9664 6.56521C13.9664 6.46185 14.0739 5.85224 15.0654 5.48521C15.1998 5.45291 15.3317 5.4106 15.4598 5.35864H15.4809C15.9795 5.14773 16.4045 4.79394 16.7024 4.34186C17.0003 3.88978 17.1577 3.35964 17.1548 2.81825C17.1518 2.27687 16.9887 1.74846 16.6859 1.29964C16.3832 0.850809 15.9544 0.501643 15.4535 0.296143C15.1211 0.157639 14.7646 0.0859644 14.4045 0.0852111C14.0444 0.0844577 13.6877 0.15464 13.3547 0.291752C13.0217 0.428863 12.719 0.630219 12.4638 0.884321C12.2087 1.13842 12.006 1.4403 11.8675 1.77271C11.3655 2.9856 11.3803 3.55302 11.395 3.69856L12.0236 11.3514L0.584492 17.9094C0.334495 18.0219 0.138093 18.2272 0.0368996 18.482C-0.0642936 18.7367 -0.0623269 19.0209 0.0423828 19.2742ZM13.0361 13.1233C13.1003 13.2774 13.1173 13.4471 13.0849 13.6109C13.0526 13.7748 12.9723 13.9253 12.8544 14.0435C12.7364 14.1617 12.5861 14.2422 12.4223 14.2749C12.2586 14.3076 12.0888 14.291 11.9346 14.2271C11.7803 14.1633 11.6484 14.0551 11.5556 13.9162C11.4628 13.7774 11.4134 13.6142 11.4134 13.4472C11.4135 13.2802 11.4631 13.117 11.5559 12.9783C11.6488 12.8395 11.7807 12.7314 11.935 12.6676C12.1415 12.5823 12.3734 12.5824 12.5798 12.6678C12.7862 12.7532 12.9503 12.917 13.0361 13.1233ZM22.2119 9.20192C22.6177 9.03381 23.0692 9.01161 23.4895 9.13909C23.9098 9.26657 24.273 9.53584 24.517 9.90104C24.761 10.2662 24.8709 10.7047 24.8278 11.1419C24.7848 11.579 24.5915 11.9876 24.2809 12.2982C23.9703 12.6088 23.5617 12.8021 23.1246 12.8451C22.6875 12.8881 22.249 12.7783 21.8838 12.5343C21.5186 12.2902 21.2493 11.9271 21.1218 11.5068C20.9943 11.0865 21.0165 10.635 21.1846 10.2292C21.2803 9.99871 21.4204 9.78935 21.5971 9.61308C21.7737 9.43682 21.9833 9.2971 22.214 9.20192H22.2119ZM13.6858 1.06606C14.1499 0.87026 14.6727 0.866821 15.1393 1.0565C15.6059 1.24619 15.978 1.61345 16.1738 2.07751C16.3696 2.54157 16.3731 3.0644 16.1834 3.53099C15.9937 3.99758 15.6264 4.36971 15.1624 4.56552C15.0344 4.59927 14.9149 4.63724 14.8038 4.67942C14.4655 4.75111 14.114 4.72903 13.7873 4.61556C13.4607 4.50209 13.1712 4.30155 12.9502 4.03558C12.7292 3.76961 12.585 3.44832 12.5332 3.1064C12.4814 2.76448 12.5241 2.41491 12.6564 2.09544C12.7513 1.86421 12.8911 1.65413 13.0678 1.47742C13.2445 1.3007 13.4546 1.16088 13.6858 1.06606Z" fill="black"/>
</g>
<defs>
<clipPath id="clip0_1_213">
<rect width="27" height="27" fill="white" transform="translate(0 0.0113525)"/>
</clipPath>
</defs>
</svg>
