<svg width="39" height="39" viewBox="0 0 39 39" fill="none" xmlns="http://www.w3.org/2000/svg">
<g clip-path="url(#clip0_1_209)">
<path d="M25.8514 6.2636C25.666 6.16693 25.4561 6.12753 25.2483 6.1504C25.0405 6.17327 24.8441 6.25739 24.6842 6.39207C24.5812 6.48178 24.4969 6.59091 24.436 6.71322L19.5686 15.8503L15.4165 7.03956C15.3238 6.77958 15.1329 6.56631 14.8847 6.4455C14.6365 6.3247 14.3509 6.30601 14.0891 6.39343C13.8272 6.48085 13.6101 6.66742 13.4843 6.91309C13.3585 7.15877 13.334 7.44398 13.4161 7.70751L17.3914 19.9435L17.291 20.1323C17.2727 20.1638 17.2596 20.1981 17.2522 20.2337C17.2522 20.2337 16.9902 21.1226 14.9972 21.4843C14.907 21.5008 14.8245 21.5462 14.7624 21.6137C14.7003 21.6812 14.6619 21.7671 14.653 21.8584C14.5437 22.9883 14.0905 24.5746 13.5245 24.609L13.5116 24.6198C13.0373 24.6455 12.5778 24.7946 12.1789 25.0526C11.78 25.3105 11.4554 25.6682 11.2374 26.0903C11.0224 26.5057 10.9172 26.9691 10.9318 27.4366C10.9464 27.9041 11.0804 28.3601 11.3209 28.7612C11.5615 29.1623 11.9006 29.4952 12.3061 29.7283C12.7116 29.9614 13.17 30.0869 13.6377 30.0928L12.6791 31.602C12.6336 31.6889 12.6089 31.7851 12.6069 31.8831C12.6049 31.9812 12.6257 32.0783 12.6677 32.1669C12.7097 32.2555 12.7717 32.3332 12.8488 32.3937C12.9259 32.4542 13.0161 32.496 13.1121 32.5158C13.2082 32.5355 13.3075 32.5327 13.4022 32.5075C13.497 32.4823 13.5846 32.4354 13.6581 32.3706C13.7317 32.3057 13.7891 32.2247 13.826 32.1338C13.8628 32.0429 13.8781 31.9448 13.8705 31.847L14.2327 30.0341C14.3167 30.016 14.3995 29.9933 14.481 29.969C15.175 29.7517 15.7544 29.2677 16.0916 28.6233C16.4287 27.9789 16.4961 27.2269 16.2788 26.5329C16.2671 26.4959 16.2521 26.4616 16.2388 26.426C16.2254 26.3904 16.0697 25.4665 16.8264 24.0055C17.2798 23.1348 18.7399 22.1905 19.9436 21.5412L23.3541 24.9494C23.4206 25.0286 23.73 25.5647 23.2065 26.4832C23.1242 26.5943 23.0504 26.7115 22.9857 26.8337L22.9695 26.8472C22.7231 27.3293 22.6249 27.8735 22.6873 28.4113C22.7498 28.9491 22.97 29.4564 23.3202 29.8692C23.6704 30.282 24.135 30.582 24.6555 30.7312C25.1759 30.8804 25.7288 30.8722 26.2446 30.7077C26.5883 30.6001 26.9074 30.4259 27.1838 30.195C27.4601 29.9641 27.6883 29.6811 27.8552 29.362C28.0222 29.0429 28.1246 28.6941 28.1568 28.3354C28.1889 27.9767 28.1501 27.6152 28.0425 27.2716C27.6475 26.0197 27.2714 25.5946 27.1665 25.4926L21.7659 20.0342L26.3133 7.65753C26.4326 7.41071 26.451 7.12716 26.3648 6.86696C26.2786 6.60676 26.0944 6.39035 25.8514 6.2636ZM19.8513 19.3277C19.7031 19.2509 19.581 19.1318 19.5005 18.9855C19.4199 18.8392 19.3846 18.6723 19.399 18.506C19.4134 18.3396 19.4768 18.1813 19.5812 18.051C19.6857 17.9207 19.8264 17.8243 19.9856 17.774C20.1449 17.7238 20.3154 17.7219 20.4757 17.7686C20.636 17.8153 20.7789 17.9085 20.8862 18.0365C20.9935 18.1644 21.0604 18.3213 21.0784 18.4873C21.0965 18.6533 21.0649 18.8209 20.9877 18.969C20.8843 19.167 20.7067 19.316 20.4937 19.3832C20.2806 19.4505 20.0496 19.4305 19.8513 19.3277ZM15.3428 28.2297C15.1401 28.6193 14.8084 28.9266 14.4045 29.0991C14.0006 29.2716 13.5494 29.2987 13.1277 29.1758C12.706 29.0529 12.34 28.7876 12.092 28.4251C11.844 28.0626 11.7294 27.6253 11.7676 27.1877C11.8059 26.7502 11.9947 26.3395 12.3019 26.0255C12.6091 25.7116 13.0156 25.5139 13.4522 25.466C13.8888 25.4182 14.3285 25.5233 14.6964 25.7634C15.0642 26.0034 15.3374 26.3636 15.4695 26.7825C15.5443 27.0205 15.5716 27.271 15.5495 27.5195C15.5275 27.7681 15.4568 28.0099 15.3412 28.2311L15.3428 28.2297ZM27.1038 28.9817C26.8742 29.4299 26.4759 29.7687 25.9966 29.9233C25.5172 30.0779 24.9961 30.0357 24.5478 29.8061C24.0995 29.5765 23.7608 29.1782 23.6062 28.6988C23.4516 28.2195 23.4937 27.6983 23.7233 27.25C23.7997 27.1419 23.8668 27.036 23.9248 26.9323C24.1379 26.6599 24.4213 26.4509 24.7445 26.3279C25.0677 26.2048 25.4183 26.1724 25.7586 26.234C26.0989 26.2957 26.4158 26.4491 26.6753 26.6778C26.9347 26.9064 27.1268 27.2016 27.2307 27.5314C27.3067 27.7695 27.3346 28.0203 27.3129 28.2693C27.2911 28.5183 27.22 28.7604 27.1038 28.9817Z" fill="black"/>
</g>
<defs>
<clipPath id="clip0_1_209">
<rect width="27" height="27" fill="white" transform="translate(38.2656 20.9927) rotate(140)"/>
</clipPath>
</defs>
</svg>
